# xmcd
#
# Track frame offsets:
#	150
#	16298
#	34871
#	46997
#	61756
#	72290
#	87364
#	98576
#	116453
#	132299
#	142835
#	157286
#	175511
#	186909
#	196725
#	211372
#	230215
#
# Disc length: 3291 seconds
#
# Revision: 1
# Processed by: cddbd v1.5.2PL0 Copyright (c) Steve Scherf et al.
# Submitted via: audiograbber 1.83.01
#
DISCID=e60cd911
DTITLE=Various Artist - Silver Bells - Vol 1
DYEAR=1900
DGENRE=Christmas Songs
TTITLE0=Alabama - Christmas in Dixie
TTITLE1=Brad Paisley - Silver Bells
TTITLE2=Brooks and Dunn - Hangin' 'round the Mistletoe
TTITLE3=John Anderson - Blue Christmas
TTITLE4=Jim Reeves - Senor Santa Claus
TTITLE5=Collin Raye - Winter Wonderland
TTITLE6=Willie Nelson - Pretty Paper
TTITLE7=Asleep at the Wheel - Feliz Navidad
TTITLE8=Charlie Daniels - Cowboy's Christmas Gift
TTITLE9=Lonestar - All My Love for Christmas
TTITLE10=The Tractors - Swingin' Home for Christmas
TTITLE11=Montgomery Gentry - Merry Christmas from the Family
TTITLE12=George Hamilton IV - Natividad (The Infant King)
TTITLE13=Johnny Horton - They Shined up Rudolph's Nose
TTITLE14=Mickey Gilley - I'll Be Home for Christmas
TTITLE15=Carrie Underwood - Do You Hear What I Hear
TTITLE16=The Bellamy Brothers - Merry Christmas and a Happy New Year
EXTD=
EXTT0=
EXTT1=
EXTT2=
EXTT3=
EXTT4=
EXTT5=
EXTT6=
EXTT7=
EXTT8=
EXTT9=
EXTT10=
EXTT11=
EXTT12=
EXTT13=
EXTT14=
EXTT15=
EXTT16=
PLAYORDER=
